<svg width="13" height="13" viewBox="0 0 13 13" fill="none" xmlns="http://www.w3.org/2000/svg">
<g clip-path="url(#clip0_1_118)">
<path d="M6.70385 6.07886L12.1216 11.4966C12.2721 11.6471 12.2721 11.891 12.1216 12.0415C12.0464 12.1168 11.9477 12.1543 11.8492 12.1543C11.7506 12.1543 11.6521 12.1168 11.5769 12.0415L6.11843 6.583L0.659966 12.0415C0.584614 12.1168 0.48612 12.1543 0.387627 12.1543C0.289133 12.1543 0.190448 12.1168 0.115287 12.0415C-0.0352268 11.891 -0.0352268 11.6471 0.115287 11.4966L5.53283 6.07886L0.111652 0.657308C-0.0388613 0.506794 -0.0388613 0.26295 0.111652 0.112437C0.262166 -0.0378858 0.50601 -0.0378858 0.656333 0.112437L6.11824 5.57473L11.5807 0.112628C11.7312 -0.0376946 11.9749 -0.0376946 12.1254 0.112628C12.2759 0.263142 12.2759 0.506985 12.1254 0.657499L6.70385 6.07886Z" fill="#D58C51"/>
</g>
<defs>
<clipPath id="clip0_1_118">
<rect width="12.24" height="12.24" fill="white" transform="matrix(-1 0 0 1 12.24 0)"/>
</clipPath>
</defs>
</svg>
